<svg xmlns="http://www.w3.org/2000/svg" viewBox="0 0 600 400" fill="none">
  <rect width="600" height="400" fill="#EEF2FF" />
  
  <!-- Background Grid -->
  <g stroke="#E0E7FF" stroke-width="1">
    <line x1="0" y1="40" x2="600" y2="40" />
    <line x1="0" y1="80" x2="600" y2="80" />
    <line x1="0" y1="120" x2="600" y2="120" />
    <line x1="0" y1="160" x2="600" y2="160" />
    <line x1="0" y1="200" x2="600" y2="200" />
    <line x1="0" y1="240" x2="600" y2="240" />
    <line x1="0" y1="280" x2="600" y2="280" />
    <line x1="0" y1="320" x2="600" y2="320" />
    <line x1="0" y1="360" x2="600" y2="360" />
    
    <line x1="40" y1="0" x2="40" y2="400" />
    <line x1="80" y1="0" x2="80" y2="400" />
    <line x1="120" y1="0" x2="120" y2="400" />
    <line x1="160" y1="0" x2="160" y2="400" />
    <line x1="200" y1="0" x2="200" y2="400" />
    <line x1="240" y1="0" x2="240" y2="400" />
    <line x1="280" y1="0" x2="280" y2="400" />
    <line x1="320" y1="0" x2="320" y2="400" />
    <line x1="360" y1="0" x2="360" y2="400" />
    <line x1="400" y1="0" x2="400" y2="400" />
    <line x1="440" y1="0" x2="440" y2="400" />
    <line x1="480" y1="0" x2="480" y2="400" />
    <line x1="520" y1="0" x2="520" y2="400" />
    <line x1="560" y1="0" x2="560" y2="400" />
  </g>
  
  <!-- Document Container -->
  <rect x="150" y="80" width="300" height="240" rx="8" fill="white" stroke="#4F46E5" stroke-width="2" />
  
  <!-- Document Header -->
  <rect x="150" y="80" width="300" height="40" rx="8" fill="#4F46E5" />
  <circle cx="170" cy="100" r="5" fill="white" />
  <circle cx="190" cy="100" r="5" fill="white" />
  <circle cx="210" cy="100" r="5" fill="white" />
  
  <!-- Document Content -->
  <rect x="170" y="140" width="260" height="10" rx="2" fill="#E0E7FF" />
  <rect x="170" y="160" width="200" height="10" rx="2" fill="#E0E7FF" />
  <rect x="170" y="180" width="240" height="10" rx="2" fill="#E0E7FF" />
  <rect x="170" y="200" width="180" height="10" rx="2" fill="#E0E7FF" />
  
  <!-- Visible Watermark -->
  <g transform="translate(300, 200) rotate(-30)" opacity="0.15">
    <text text-anchor="middle" font-family="Arial" font-size="20" fill="#4F46E5">
      SECURED BY GENSHIELD
    </text>
  </g>
  
  <!-- Lock Icon -->
  <circle cx="300" cy="260" r="30" fill="#EEF2FF" stroke="#4F46E5" stroke-width="2" />
  <rect x="290" y="250" width="20" height="25" rx="2" fill="#4F46E5" />
  <rect x="295" y="240" width="10" height="15" rx="4" stroke="#4F46E5" stroke-width="2" fill="none" />
  <circle cx="300" cy="260" r="3" fill="white" />
  <line x1="300" y1="260" x2="300" y2="265" stroke="white" stroke-width="2" />
  
  <!-- Shield Icons -->
  <g transform="translate(450, 80)">
    <path d="M12 22s8-4 8-10V5l-8-3-8 3v7c0 6 8 10 8 10z" transform="scale(0.7)" fill="#C7D2FE" stroke="#4F46E5" stroke-width="2" />
    <path d="M9 12l2 2 4-4" transform="scale(0.7)" stroke="#4F46E5" stroke-width="2" />
  </g>
  
  <g transform="translate(150, 320)">
    <path d="M12 22s8-4 8-10V5l-8-3-8 3v7c0 6 8 10 8 10z" transform="scale(0.7)" fill="#C7D2FE" stroke="#4F46E5" stroke-width="2" />
    <path d="M9 12l2 2 4-4" transform="scale(0.7)" stroke="#4F46E5" stroke-width="2" />
  </g>
  
  <!-- Digital Code/Binary Patterns -->
  <g opacity="0.5" fill="#4F46E5" font-family="monospace" font-size="8">
    <text x="480" y="130">10110</text>
    <text x="480" y="140">01001</text>
    <text x="480" y="150">11010</text>
    <text x="480" y="160">00101</text>
    <text x="480" y="170">10110</text>
    
    <text x="120" y="250">10110</text>
    <text x="120" y="260">01001</text>
    <text x="120" y="270">11010</text>
    <text x="120" y="280">00101</text>
    <text x="120" y="290">10110</text>
  </g>
</svg>
